<?xml version="1.0" encoding="UTF-8" standalone="no"?>
<svg
   xmlns:osb="http://www.openswatchbook.org/uri/2009/osb"
   xmlns:dc="http://purl.org/dc/elements/1.1/"
   xmlns:cc="http://creativecommons.org/ns#"
   xmlns:rdf="http://www.w3.org/1999/02/22-rdf-syntax-ns#"
   xmlns:svg="http://www.w3.org/2000/svg"
   xmlns="http://www.w3.org/2000/svg"
   xmlns:xlink="http://www.w3.org/1999/xlink"
   xmlns:sodipodi="http://sodipodi.sourceforge.net/DTD/sodipodi-0.dtd"
   xmlns:inkscape="http://www.inkscape.org/namespaces/inkscape"
   version="1.1"
   x="0px"
   y="0px"
   viewBox="0 0 341.8 341.8"
   style="enable-background:new 0 0 341.8 341.8;"
   xml:space="preserve"
   id="svg22"
   sodipodi:docname="icon.svg"
   inkscape:export-filename="C:\Users\sam\Development\ca\craymer\sam\sra\src\favicon.png"
   inkscape:export-xdpi="17.959999"
   inkscape:export-ydpi="17.959999"
   inkscape:version="1.0 (4035a4fb49, 2020-05-01)"><metadata
   id="metadata28"><rdf:RDF><cc:Work
       rdf:about=""><dc:format>image/svg+xml</dc:format><dc:type
         rdf:resource="http://purl.org/dc/dcmitype/StillImage" /></cc:Work></rdf:RDF></metadata><defs
   id="defs26"><linearGradient
     id="linearGradient2882"
     inkscape:collect="always"><stop
       id="stop2878"
       offset="0"
       style="stop-color:#f57c00;stop-opacity:1;" /><stop
       id="stop2880"
       offset="1"
       style="stop-color:#f57c00;stop-opacity:0;" /></linearGradient><linearGradient
     osb:paint="solid"
     id="linearGradient2806"><stop
       id="stop2804"
       offset="0"
       style="stop-color:#000000;stop-opacity:1;" /></linearGradient><clipPath
     clipPathUnits="userSpaceOnUse"
     id="clipPath971"><text
       xml:space="preserve"
       style="font-style:normal;font-variant:normal;font-weight:normal;font-stretch:normal;font-size:206.216px;line-height:1.25;font-family:sans-serif;-inkscape-font-specification:sans-serif;display:inline;fill:#ffffff;fill-opacity:1;stroke:none;stroke-width:3.2719"
       x="90.518799"
       y="248.82535"
       id="text975"
       transform="scale(0.99841044,1.0015921)"><tspan
         id="tspan973"
         x="90.518799"
         y="248.82535"
         sodipodi:role="line"
         style="font-style:normal;font-variant:normal;font-weight:normal;font-stretch:normal;font-size:206.216px;font-family:sans-serif;-inkscape-font-specification:sans-serif;stroke-width:3.2719">R</tspan></text></clipPath><linearGradient
     gradientUnits="userSpaceOnUse"
     y2="-232.30586"
     x2="171.17274"
     y1="231.1685"
     x1="171.17274"
     id="linearGradient2884"
     xlink:href="#linearGradient2882"
     inkscape:collect="always" /><filter
     id="filter368"
     inkscape:label="Drop Shadow"
     style="color-interpolation-filters:sRGB;"><feFlood
       id="feFlood358"
       result="flood"
       flood-color="rgb(0,0,0)"
       flood-opacity="0.498039" /><feComposite
       id="feComposite360"
       result="composite1"
       operator="in"
       in2="SourceGraphic"
       in="flood" /><feGaussianBlur
       id="feGaussianBlur362"
       result="blur"
       stdDeviation="0.2"
       in="composite1" /><feOffset
       id="feOffset364"
       result="offset"
       dy="0"
       dx="0" /><feComposite
       id="feComposite366"
       result="composite2"
       operator="over"
       in2="offset"
       in="SourceGraphic" /></filter></defs><sodipodi:namedview
   inkscape:document-rotation="0"
   pagecolor="#ffffff"
   bordercolor="#666666"
   borderopacity="1"
   objecttolerance="10"
   gridtolerance="10"
   guidetolerance="10"
   inkscape:pageopacity="0"
   inkscape:pageshadow="2"
   inkscape:window-width="1920"
   inkscape:window-height="1017"
   id="namedview24"
   showgrid="false"
   inkscape:snap-text-baseline="false"
   inkscape:zoom="2.8284271"
   inkscape:cx="156.13288"
   inkscape:cy="160.69234"
   inkscape:window-x="-8"
   inkscape:window-y="-8"
   inkscape:window-maximized="1"
   inkscape:current-layer="g2914" />
<style
   type="text/css"
   id="style2">
	.st0{fill:#F57C00;}
	.st1{fill:#FFFFFF;}
	.st2{display:none;}
	.st3{display:inline;fill:none;stroke:#D8D8D8;stroke-width:0.5;stroke-miterlimit:10;}
</style>
<g
   id="Artwork"
   style="display:inline"
   transform="matrix(1.0023208,0,0,0.99899072,-0.19796729,0.08609381)">
	<rect
   inkscape:label="bgbase"
   style="display:inline;mix-blend-mode:normal;fill:#ffffff;fill-opacity:1"
   id="rect2886"
   width="170.60406"
   height="171.17274"
   x="85.302032"
   y="85.302032" />
<rect
   inkscape:label="bggradient"
   y="85.302032"
   x="85.302032"
   height="171.17274"
   width="170.60406"
   id="rect2840"
   style="display:inline;mix-blend-mode:normal;fill:url(#linearGradient2884);fill-opacity:1" /><g
   inkscape:label="bgclip"
   transform="matrix(7.1085027,0,0,7.1321984,85.302032,85.302032)"
   id="g2914"
   style="fill:#000000"><path
     sodipodi:insensitive="true"
     d="M 0,0 H 24 V 24 H 0 Z"
     fill="none"
     id="path2900" /><path
     id="path2902"
     style="fill:#ffffff;fill-opacity:1;stroke-width:1.06;filter:url(#filter368)"
     d="m 6.1557376,3.348403 c -1.285721,0 -2.3258913,0.8651004 -2.3258913,1.922523 L 3.8180908,20.651597 7.5174153,19.347692 V 6.4771425 c 0,-0.3033947 0.082972,-0.5136481 0.2487123,-0.6303387 0.1740279,-0.1244707 0.356321,-0.1865866 0.5469233,-0.1865866 h 3.4182661 c 0.406064,0 0.741672,0.011591 1.006857,0.034924 0.273472,0.015558 0.517932,0.035031 0.733395,0.058368 0.621528,0.1011315 1.168653,0.2606116 1.641014,0.4784337 0.480648,0.2178222 0.882387,0.4941353 1.205582,0.8286481 0.323194,0.3345127 0.563691,0.71953 0.721144,1.1551744 0.165742,0.4278642 0.248467,0.9023578 0.248467,1.4235761 0,0.5056575 -0.07455,0.9606785 -0.223718,1.3652045 -0.140879,0.396749 -0.347942,0.750709 -0.621415,1.061882 -0.273471,0.303395 -0.600904,0.567879 -0.982107,0.79348 -0.381205,0.225603 -0.807959,0.416382 -1.28032,0.571971 0.265186,0.108911 0.505437,0.248917 0.7209,0.420064 0.215464,0.163366 0.41435,0.361789 0.596666,0.59517 0.1906,0.233381 0.368929,0.501564 0.53467,0.804959 0.165741,0.303396 0.331439,0.64577 0.49718,1.026959 l 1.441797,3.325583 c 0.05035,0.12155 0.08949,0.220852 0.124235,0.311629 l 2.086245,0.735354 V 5.270926 c 0,-1.0574226 -1.051932,-1.922523 -2.337653,-1.922523 z m 3.4996201,3.9688664 v 5.0876526 h 2.0884493 c 0.563518,0 1.048229,-0.06212 1.454296,-0.186586 0.414351,-0.132249 0.758378,-0.311201 1.031851,-0.536802 0.273472,-0.233381 0.472359,-0.505751 0.596665,-0.816927 0.132591,-0.311173 0.198725,-0.649603 0.198725,-1.0152343 0,-0.5912304 -0.140685,-1.0891407 -0.422445,-1.4936672 C 14.32114,7.9433991 13.848813,7.647857 13.18585,7.4689317 12.978674,7.4144769 12.742388,7.3755315 12.477203,7.3521935 12.220305,7.3288554 11.880489,7.3172697 11.457849,7.3172697 Z m 0,6.7095376 v 4.567457 l 2.3445143,-0.826451 3.3499,1.180819 -0.896101,-2.156245 C 14.279644,16.38786 14.09735,16.018372 13.906749,15.68386 13.724434,15.341567 13.504744,15.049969 13.247844,14.808808 12.990946,14.559869 12.688528,14.369332 12.340472,14.237082 11.992418,14.097055 11.573838,14.026807 11.084903,14.026807 Z" /></g></g>

</svg>
