<?xml version="1.0" encoding="UTF-8" standalone="no"?>
<svg
   xmlns:osb="http://www.openswatchbook.org/uri/2009/osb"
   xmlns:dc="http://purl.org/dc/elements/1.1/"
   xmlns:cc="http://creativecommons.org/ns#"
   xmlns:rdf="http://www.w3.org/1999/02/22-rdf-syntax-ns#"
   xmlns:svg="http://www.w3.org/2000/svg"
   xmlns="http://www.w3.org/2000/svg"
   xmlns:xlink="http://www.w3.org/1999/xlink"
   xmlns:sodipodi="http://sodipodi.sourceforge.net/DTD/sodipodi-0.dtd"
   xmlns:inkscape="http://www.inkscape.org/namespaces/inkscape"
   version="1.1"
   x="0px"
   y="0px"
   viewBox="0 0 341.8 341.8"
   style="enable-background:new 0 0 341.8 341.8;"
   xml:space="preserve"
   id="svg22"
   sodipodi:docname="icon.svg"
   inkscape:export-filename="C:\Users\sam\Development\ca\craymer\sam\sra\src\favicon.png"
   inkscape:export-xdpi="17.950001"
   inkscape:export-ydpi="17.950001"
   inkscape:version="1.0 (4035a4fb49, 2020-05-01)"><metadata
   id="metadata28"><rdf:RDF><cc:Work
       rdf:about=""><dc:format>image/svg+xml</dc:format><dc:type
         rdf:resource="http://purl.org/dc/dcmitype/StillImage" /></cc:Work></rdf:RDF></metadata><defs
   id="defs26"><rect
     x="120.5"
     y="107"
     width="99.863583"
     height="128.0782"
     id="rect24" /><linearGradient
     id="linearGradient2882"
     inkscape:collect="always"><stop
       id="stop2878"
       offset="0"
       style="stop-color:#f57c00;stop-opacity:1;" /><stop
       id="stop2880"
       offset="1"
       style="stop-color:#f57c00;stop-opacity:0;" /></linearGradient><linearGradient
     osb:paint="solid"
     id="linearGradient2806"><stop
       id="stop2804"
       offset="0"
       style="stop-color:#000000;stop-opacity:1;" /></linearGradient><clipPath
     clipPathUnits="userSpaceOnUse"
     id="clipPath971"><text
       xml:space="preserve"
       style="font-style:normal;font-variant:normal;font-weight:normal;font-stretch:normal;font-size:206.216px;line-height:1.25;font-family:sans-serif;-inkscape-font-specification:sans-serif;display:inline;fill:#ffffff;fill-opacity:1;stroke:none;stroke-width:3.2719"
       x="90.518799"
       y="248.82535"
       id="text975"
       transform="scale(0.99841044,1.0015921)"><tspan
         id="tspan973"
         x="90.518799"
         y="248.82535"
         sodipodi:role="line"
         style="font-style:normal;font-variant:normal;font-weight:normal;font-stretch:normal;font-size:206.216px;font-family:sans-serif;-inkscape-font-specification:sans-serif;stroke-width:3.2719">R</tspan></text></clipPath><linearGradient
     gradientTransform="matrix(1.0033348,0,0,1,-0.28446729,0)"
     gradientUnits="userSpaceOnUse"
     y2="-232.30586"
     x2="171.17274"
     y1="231.1685"
     x1="171.17274"
     id="linearGradient2884"
     xlink:href="#linearGradient2882"
     inkscape:collect="always" /></defs><sodipodi:namedview
   inkscape:document-rotation="0"
   pagecolor="#ffffff"
   bordercolor="#666666"
   borderopacity="1"
   objecttolerance="10"
   gridtolerance="10"
   guidetolerance="10"
   inkscape:pageopacity="0"
   inkscape:pageshadow="2"
   inkscape:window-width="1920"
   inkscape:window-height="1017"
   id="namedview24"
   showgrid="false"
   inkscape:snap-text-baseline="false"
   inkscape:zoom="2"
   inkscape:cx="90.63649"
   inkscape:cy="186.8734"
   inkscape:window-x="-8"
   inkscape:window-y="-8"
   inkscape:window-maximized="1"
   inkscape:current-layer="Artwork" />
<style
   type="text/css"
   id="style2">
	.st0{fill:#F57C00;}
	.st1{fill:#FFFFFF;}
	.st2{display:none;}
	.st3{display:inline;fill:none;stroke:#D8D8D8;stroke-width:0.5;stroke-miterlimit:10;}
</style>
<g
   id="Artwork"
   style="display:inline">
	<rect
   inkscape:label="bgbase"
   style="display:inline;mix-blend-mode:normal;fill:#ffffff;fill-opacity:1;stroke-width:1.00167"
   id="rect2886"
   width="171.173"
   height="171.17274"
   x="85.302032"
   y="85.302032" />
<rect
   inkscape:label="bggradient"
   y="85.302032"
   x="85.302032"
   height="171.17274"
   width="171.173"
   id="rect2840"
   style="display:inline;mix-blend-mode:normal;fill:url(#linearGradient2884);fill-opacity:1;stroke-width:1.00167" /><g
   inkscape:label="bgclip"
   transform="matrix(7.1322083,0,0,7.1321984,85.302032,85.302032)"
   id="g2914"
   style="fill:#000000"><path
     sodipodi:insensitive="true"
     d="M 0,0 H 24 V 24 H 0 Z"
     fill="none"
     id="path2900" /><path
     id="path34"
     style="display:inline;fill:#ffffff;fill-opacity:1;stroke-width:7.12034"
     d="m 135.0625,106.69922 c -7.81935,0 -14.14648,6.41825 -14.14648,14.26367 l -0.0723,114.11523 18.61133,-8.00195 v -95.5332 c 0,-2.45444 0.58572,-4.15364 1.75976,-5.09766 1.23275,-1.00695 2.52486,-1.50976 3.875,-1.50976 h 24.21485 c 2.87641,0 5.25435,0.0944 7.13281,0.2832 1.93717,0.12587 3.6671,0.2819 5.19336,0.4707 4.40266,0.81815 8.27702,2.10893 11.62305,3.8711 3.40472,1.76216 6.25358,3.99694 8.54297,6.70312 2.28938,2.70618 3.99012,5.82138 5.10546,9.34571 1.17404,3.46139 1.76172,7.29901 1.76172,11.51562 0,4.09074 -0.52735,7.77233 -1.58398,11.04492 -0.99794,3.20966 -2.46713,6.07442 -4.4043,8.5918 -1.93717,2.45444 -4.25477,4.59287 -6.95508,6.41797 -2.70029,1.8251 -5.72429,3.36826 -9.07031,4.62695 1.87847,0.88108 3.58117,2.01388 5.10742,3.39844 1.52626,1.32162 2.93512,2.92642 4.22657,4.81445 1.35015,1.88803 2.61306,4.05923 3.7871,6.51367 1.17404,2.45444 2.34745,5.22286 3.52149,8.30664 l 7.66797,20.19532 9.40234,4.04296 V 120.96289 c 0,-7.84542 -6.39744,-14.26367 -14.2168,-14.26367 z m 19.53711,31.64062 v 41.15821 h 14.79297 c 3.99174,0 7.42633,-0.50282 10.30273,-1.50977 2.93511,-1.06989 5.37143,-2.5167 7.3086,-4.3418 1.93717,-1.88803 3.34603,-4.09199 4.22656,-6.60937 0.93924,-2.51738 1.4082,-5.25497 1.4082,-8.21289 0,-4.78302 -0.99827,-8.80944 -2.99414,-12.08203 -1.99587,-3.33553 -5.34094,-5.72829 -10.03711,-7.17578 -1.46755,-0.44054 -3.14106,-0.75456 -5.01953,-0.94336 -1.81977,-0.18881 -4.22689,-0.28321 -7.2207,-0.28321 z m 0,54.28125 v 27.94141 l 16.00391,-6.88086 20.7539,8.92383 -2.76953,-7.61133 c -1.23274,-3.27259 -2.52485,-6.26257 -3.875,-8.96875 -1.29144,-2.76911 -2.84625,-5.12911 -4.66601,-7.08008 -1.81977,-2.0139 -3.96225,-3.55511 -6.42774,-4.625 -2.46549,-1.13282 -5.42915,-1.69922 -8.89258,-1.69922 z"
     transform="matrix(0.1406766,0,0,0.14020922,-12,-11.960132)" /></g></g>

</svg>
