<?xml version="1.0" encoding="UTF-8" standalone="no"?>
<svg
   xmlns:osb="http://www.openswatchbook.org/uri/2009/osb"
   xmlns:dc="http://purl.org/dc/elements/1.1/"
   xmlns:cc="http://creativecommons.org/ns#"
   xmlns:rdf="http://www.w3.org/1999/02/22-rdf-syntax-ns#"
   xmlns:svg="http://www.w3.org/2000/svg"
   xmlns="http://www.w3.org/2000/svg"
   xmlns:xlink="http://www.w3.org/1999/xlink"
   xmlns:sodipodi="http://sodipodi.sourceforge.net/DTD/sodipodi-0.dtd"
   xmlns:inkscape="http://www.inkscape.org/namespaces/inkscape"
   inkscape:version="1.0 (4035a4fb49, 2020-05-01)"
   inkscape:export-ydpi="17.959999"
   inkscape:export-xdpi="17.959999"
   inkscape:export-filename="C:\Users\sam\Development\ca\craymer\sam\sra\src\favicon.png"
   sodipodi:docname="icon-alt.svg"
   id="svg22"
   xml:space="preserve"
   style="enable-background:new 0 0 341.8 341.8;"
   viewBox="0 0 341.8 341.8"
   y="0px"
   x="0px"
   version="1.1"><metadata
   id="metadata28"><rdf:RDF><cc:Work
       rdf:about=""><dc:format>image/svg+xml</dc:format><dc:type
         rdf:resource="http://purl.org/dc/dcmitype/StillImage" /></cc:Work></rdf:RDF></metadata><defs
   id="defs26"><linearGradient
     inkscape:collect="always"
     id="linearGradient2882"><stop
       style="stop-color:#f57c00;stop-opacity:1;"
       offset="0"
       id="stop2878" /><stop
       style="stop-color:#f57c00;stop-opacity:0;"
       offset="1"
       id="stop2880" /></linearGradient><linearGradient
     id="linearGradient2806"
     osb:paint="solid"><stop
       style="stop-color:#000000;stop-opacity:1;"
       offset="0"
       id="stop2804" /></linearGradient><clipPath
     id="clipPath971"
     clipPathUnits="userSpaceOnUse"><text
       transform="scale(0.99841044,1.0015921)"
       id="text975"
       y="248.82535"
       x="90.518799"
       style="font-style:normal;font-variant:normal;font-weight:normal;font-stretch:normal;font-size:206.216px;line-height:1.25;font-family:sans-serif;-inkscape-font-specification:sans-serif;display:inline;fill:#ffffff;fill-opacity:1;stroke:none;stroke-width:3.2719"
       xml:space="preserve"><tspan
         style="font-style:normal;font-variant:normal;font-weight:normal;font-stretch:normal;font-size:206.216px;font-family:sans-serif;-inkscape-font-specification:sans-serif;stroke-width:3.2719"
         sodipodi:role="line"
         y="248.82535"
         x="90.518799"
         id="tspan973">R</tspan></text></clipPath><linearGradient
     inkscape:collect="always"
     xlink:href="#linearGradient2882"
     id="linearGradient2884"
     x1="171.17274"
     y1="231.1685"
     x2="171.17274"
     y2="-232.30586"
     gradientUnits="userSpaceOnUse" /></defs><sodipodi:namedview
   inkscape:current-layer="svg22"
   inkscape:window-maximized="1"
   inkscape:window-y="-8"
   inkscape:window-x="-8"
   inkscape:cy="161.32837"
   inkscape:cx="163.44437"
   inkscape:zoom="4"
   inkscape:snap-text-baseline="false"
   showgrid="false"
   id="namedview24"
   inkscape:window-height="1017"
   inkscape:window-width="1920"
   inkscape:pageshadow="2"
   inkscape:pageopacity="0"
   guidetolerance="10"
   gridtolerance="10"
   objecttolerance="10"
   borderopacity="1"
   bordercolor="#666666"
   pagecolor="#ffffff"
   inkscape:document-rotation="0" />
<style
   id="style2"
   type="text/css">
	.st0{fill:#F57C00;}
	.st1{fill:#FFFFFF;}
	.st2{display:none;}
	.st3{display:inline;fill:none;stroke:#D8D8D8;stroke-width:0.5;stroke-miterlimit:10;}
</style>
<g
   transform="matrix(1.0023208,0,0,0.99899072,-0.19796729,0.08609381)"
   style="display:inline"
   id="Artwork">
	<rect
   y="85.302032"
   x="85.302032"
   height="171.17274"
   width="170.60406"
   id="rect2886"
   style="display:inline;mix-blend-mode:normal;fill:#ffffff;fill-opacity:1"
   inkscape:label="bgbase" />
<rect
   style="display:inline;mix-blend-mode:normal;fill:url(#linearGradient2884);fill-opacity:1"
   id="rect2840"
   width="170.60406"
   height="171.17274"
   x="85.302032"
   y="85.302032"
   inkscape:label="bggradient" /><g
   style="fill:#000000"
   id="g2914"
   transform="matrix(7.1085027,0,0,7.1321984,85.302032,85.302032)"
   inkscape:label="bgclip"><path
     id="path2900"
     fill="none"
     d="M 0,0 H 24 V 24 H 0 Z"
     sodipodi:insensitive="true" /><path
     d="m 5.4468535,2.2990012 c -1.4416734,0 -2.6080119,0.9700333 -2.6080119,2.1557168 L 2.8256602,21.700999 6.9736969,20.238935 V 5.8072434 c 0,-0.3401952 0.093036,-0.5759514 0.2788801,-0.7067961 C 7.4477137,4.9608789 7.6521182,4.8912285 7.8658397,4.8912285 h 3.8328873 c 0.455318,0 0.831634,0.012997 1.128985,0.03916 0.306642,0.017445 0.580755,0.03928 0.822353,0.065448 0.696916,0.1133984 1.310405,0.2922227 1.840061,0.5364657 0.538949,0.2442431 0.989418,0.5540718 1.351815,0.9291595 0.362395,0.3750877 0.632063,0.8068059 0.808615,1.2952921 0.185845,0.4797623 0.278605,1.01181 0.278605,1.5962497 0,0.566992 -0.08359,1.0772045 -0.250854,1.5307985 -0.157967,0.444873 -0.390146,0.841766 -0.69679,1.190683 -0.306642,0.340196 -0.673791,0.63676 -1.101233,0.889726 -0.427443,0.252967 -0.90596,0.466888 -1.435616,0.641348 0.297351,0.122122 0.566744,0.27911 0.808342,0.471016 0.241598,0.183182 0.464608,0.405673 0.669038,0.667362 0.21372,0.261689 0.413679,0.562402 0.599523,0.902597 0.185845,0.340197 0.371642,0.724099 0.557486,1.151524 l 1.616682,3.728963 c 0.05646,0.136294 0.100345,0.24764 0.139304,0.349428 l 2.339297,0.824549 V 4.454718 c 0,-1.1856835 -1.179527,-2.1557168 -2.6212,-2.1557168 z m 3.9241091,4.4502729 v 5.7047629 h 2.3417704 c 0.63187,0 1.175375,-0.06965 1.630695,-0.209218 0.46461,-0.14829 0.850366,-0.348948 1.15701,-0.601914 0.306643,-0.261689 0.529654,-0.567097 0.669038,-0.916016 0.148674,-0.348917 0.222829,-0.728398 0.222829,-1.1383783 0,-0.6629442 -0.157749,-1.2212489 -0.473685,-1.6748426 -0.315935,-0.4623175 -0.845553,-0.7937076 -1.588931,-0.9943357 -0.232305,-0.06106 -0.497252,-0.1047293 -0.794603,-0.130898 -0.288058,-0.026169 -0.669093,-0.03916 -1.142997,-0.03916 z m 0,7.5233759 v 5.12147 l 2.6288944,-0.926696 3.756229,1.324046 -1.004794,-2.417787 C 14.556156,16.920089 14.351751,16.505783 14.13803,16.130696 13.933601,15.746885 13.687263,15.419916 13.399203,15.149504 13.111144,14.87037 12.772044,14.656721 12.381771,14.508431 11.991499,14.351418 11.522147,14.27265 10.973906,14.27265 Z"
     style="fill:#ffffff;fill-opacity:1;stroke-width:1.18858"
     id="path2902" /></g></g>

</svg>
